<?xml version="1.0" encoding="utf-8"?>
<!-- Generator: Adobe Illustrator 24.3.0, SVG Export Plug-In . SVG Version: 6.00 Build 0)  -->
<svg version="1.1" id="Livello_1" xmlns="http://www.w3.org/2000/svg" xmlns:xlink="http://www.w3.org/1999/xlink" x="0px" y="0px"
	 viewBox="0 0 594.5 339.4" style="enable-background:new 0 0 594.5 339.4;" xml:space="preserve">
<style type="text/css">
	.st0{fill:#2623BF;}
	.st1{fill:#2ADBA8;}
	.st2{fill:#1A1D1E;}
	.st3{fill:#015AA6;}
	.st4{fill:#B6CC09;}
	.st5{fill:url(#SVGID_1_);}
	.st6{fill:url(#SVGID_2_);}
	.st7{fill:url(#SVGID_3_);}
	.st8{fill:url(#SVGID_4_);}
	.st9{fill:#838383;}
	.st10{fill:#666666;}
	.st11{fill:#FFFFFF;}
	.st12{fill:#3FAA6B;}
	.st13{fill:#2477BC;}
	.st14{fill:#76C45C;}
	.st15{fill:url(#SVGID_5_);}
	.st16{fill:url(#SVGID_6_);}
	.st17{fill:#1D1D1B;}
	.st18{fill:url(#SVGID_7_);}
	.st19{fill:url(#SVGID_8_);}
	.st20{fill:url(#SVGID_9_);}
	.st21{fill:url(#SVGID_10_);}
</style>
<g>
	<g>
		<path class="st12" d="M584.2,10.4c-5.5-5.7-13.2-9.5-22.2-9.5l-25.2-0.1H248.9c-33.4,0-43.9,26-28.5,50.5l46.4,80.4
			c16.7,28.9,44,76.2,60.7,105.1l46.4,80.4c7.7,13.4,17.7,20.6,27.9,21.5c4.4,0.2,8.9-0.5,13-2.2c0.2-0.1,0.4-0.2,0.6-0.3
			c5.4-2.2,10.2-6,13.8-11.3c0,0,0,0,0-0.1c0.4-0.6,0.8-1.2,1.2-1.8l78.1-134.3l1.1-1.9l79-139.8C596,34.4,593.1,19.7,584.2,10.4z
			 M437.8,147l-21.6,37.1c-5.7,9.8-19.8,9.8-25.5,0L369.2,147l-21.4-37.2c-5.6-9.8,1.4-22,12.7-22.1l42.9-0.1l25.9,0.1l17.1,0
			c11.3,0,18.3,12.3,12.7,22.1l-9,15.7L437.8,147z"/>
		<path class="st13" d="M198.9,53.1C182.2,24.2,172.4,0.6,139,0.6H37.1c-33.4,0-43.9,26-28.5,50.5l46.4,80.4
			c16.7,28.9,44,76.2,60.6,105l46.4,80.4c16.7,28.9,44,28.9,60.7,0l30.5-58.5c16.7-28.9,28.2-56.5,11.5-85.4L198.9,53.1z"/>
	</g>
</g>
</svg>
